<svg width="133" height="16" viewBox="0 0 133 16" fill="none" xmlns="http://www.w3.org/2000/svg">
<path d="M11.4922 5.53906L10.1562 6.10156C10.0521 5.76302 9.91146 5.45312 9.73438 5.17188C9.5625 4.89062 9.35417 4.65104 9.10938 4.45312C8.86979 4.25 8.59635 4.09375 8.28906 3.98438C7.98177 3.86979 7.64583 3.8125 7.28125 3.8125C6.89062 3.8125 6.53125 3.8776 6.20312 4.00781C5.88021 4.13281 5.58854 4.30729 5.32812 4.53125C5.07292 4.75521 4.84896 5.01562 4.65625 5.3125C4.46354 5.60938 4.30208 5.92708 4.17188 6.26562C4.04167 6.59896 3.94531 6.94531 3.88281 7.30469C3.82031 7.66406 3.78906 8.01562 3.78906 8.35938C3.78906 8.90625 3.85156 9.45052 3.97656 9.99219C4.10677 10.5339 4.3099 11.0208 4.58594 11.4531C4.86719 11.8854 5.22917 12.237 5.67188 12.5078C6.11458 12.7734 6.65104 12.9062 7.28125 12.9062C7.61458 12.9062 7.92969 12.8516 8.22656 12.7422C8.52344 12.6276 8.79167 12.474 9.03125 12.2812C9.27604 12.0833 9.48958 11.8516 9.67188 11.5859C9.85417 11.3203 10 11.0339 10.1094 10.7266L11.4609 11.2656C11.263 11.7604 10.9922 12.1953 10.6484 12.5703C10.3047 12.9401 9.91146 13.2474 9.46875 13.4922C9.03125 13.737 8.5599 13.9193 8.05469 14.0391C7.55469 14.1641 7.04948 14.2266 6.53906 14.2266C5.98698 14.2266 5.45573 14.1589 4.94531 14.0234C4.4401 13.888 3.96875 13.6953 3.53125 13.4453C3.09375 13.1953 2.69531 12.8932 2.33594 12.5391C1.98177 12.1849 1.67708 11.7917 1.42188 11.3594C1.17188 10.9271 0.976562 10.4583 0.835938 9.95312C0.700521 9.44271 0.632812 8.91146 0.632812 8.35938C0.632812 7.80729 0.700521 7.27865 0.835938 6.77344C0.976562 6.26302 1.17188 5.79167 1.42188 5.35938C1.67708 4.92188 1.98177 4.52604 2.33594 4.17188C2.69531 3.81771 3.09375 3.51562 3.53125 3.26562C3.96875 3.01562 4.4401 2.82292 4.94531 2.6875C5.45573 2.55208 5.98698 2.48438 6.53906 2.48438C7.07031 2.48438 7.58854 2.54688 8.09375 2.67188C8.60417 2.79688 9.07812 2.98698 9.51562 3.24219C9.95312 3.49219 10.3411 3.8099 10.6797 4.19531C11.0234 4.57552 11.2943 5.02344 11.4922 5.53906ZM22.2188 14H19.5781V12.9219C19.2656 13.349 18.888 13.6667 18.4453 13.875C18.0078 14.0781 17.526 14.1797 17 14.1797C16.3125 14.1797 15.6979 14.0573 15.1562 13.8125C14.6146 13.5677 14.1562 13.2344 13.7812 12.8125C13.4062 12.3854 13.1198 11.8854 12.9219 11.3125C12.724 10.7396 12.625 10.125 12.625 9.46875C12.625 8.8125 12.724 8.19792 12.9219 7.625C13.1198 7.05208 13.4062 6.55469 13.7812 6.13281C14.1562 5.70573 14.6146 5.36979 15.1562 5.125C15.6979 4.88021 16.3125 4.75781 17 4.75781C17.349 4.75781 17.6797 4.8099 17.9922 4.91406C18.3099 5.01823 18.599 5.16667 18.8594 5.35938C19.125 5.54688 19.3568 5.77604 19.5547 6.04688C19.7578 6.3125 19.9167 6.60938 20.0312 6.9375L21.2031 4.97656H22.2188V14ZM19.5625 9.46875C19.5625 9.23438 19.5495 8.98698 19.5234 8.72656C19.5026 8.46615 19.4635 8.20833 19.4062 7.95312C19.349 7.69792 19.2682 7.45573 19.1641 7.22656C19.0651 6.99219 18.9349 6.78646 18.7734 6.60938C18.6172 6.42708 18.4271 6.28385 18.2031 6.17969C17.9792 6.07552 17.7188 6.02344 17.4219 6.02344C17.125 6.02344 16.8672 6.07812 16.6484 6.1875C16.4297 6.29167 16.2422 6.4349 16.0859 6.61719C15.9297 6.79427 15.7995 7 15.6953 7.23438C15.5964 7.46875 15.5182 7.71354 15.4609 7.96875C15.4036 8.22396 15.362 8.48177 15.3359 8.74219C15.3151 8.9974 15.3047 9.23958 15.3047 9.46875C15.3047 9.69792 15.3151 9.94271 15.3359 10.2031C15.362 10.4635 15.4036 10.7214 15.4609 10.9766C15.5182 11.2318 15.5964 11.4766 15.6953 11.7109C15.7995 11.9453 15.9297 12.1536 16.0859 12.3359C16.2422 12.513 16.4297 12.6562 16.6484 12.7656C16.8672 12.8698 17.125 12.9219 17.4219 12.9219C17.6927 12.9219 17.9323 12.8672 18.1406 12.7578C18.3542 12.6432 18.5391 12.4922 18.6953 12.3047C18.8568 12.1172 18.9922 11.9036 19.1016 11.6641C19.2109 11.4245 19.2995 11.1771 19.3672 10.9219C19.4349 10.6667 19.4844 10.4141 19.5156 10.1641C19.5469 9.90885 19.5625 9.67708 19.5625 9.46875ZM32.8594 1.26562L31.3672 3.73438C31.3516 3.53646 31.3151 3.3099 31.2578 3.05469C31.2005 2.79427 31.1042 2.54948 30.9688 2.32031C30.8385 2.09115 30.6562 1.89844 30.4219 1.74219C30.1927 1.58073 29.8984 1.5 29.5391 1.5C29.1693 1.5 28.8724 1.57292 28.6484 1.71875C28.4245 1.86458 28.2526 2.08333 28.1328 2.375C28.013 2.66667 27.9323 3.02865 27.8906 3.46094C27.849 3.89323 27.8281 4.39583 27.8281 4.96875H30.5625V6.01562H27.8281V14H25.1797V6.01562H23.5391V4.96875H25.1797C25.1797 4.14062 25.2682 3.42969 25.4453 2.83594C25.6224 2.24219 25.8906 1.75521 26.25 1.375C26.6094 0.989583 27.0599 0.708333 27.6016 0.53125C28.1484 0.348958 28.7865 0.257812 29.5156 0.257812C29.9531 0.257812 30.3438 0.289062 30.6875 0.351562C31.0365 0.408854 31.3438 0.486979 31.6094 0.585938C31.8802 0.679688 32.1172 0.786458 32.3203 0.90625C32.5234 1.02604 32.7031 1.14583 32.8594 1.26562ZM40.6562 1.26562L39.1641 3.73438C39.1484 3.53646 39.112 3.3099 39.0547 3.05469C38.9974 2.79427 38.901 2.54948 38.7656 2.32031C38.6354 2.09115 38.4531 1.89844 38.2188 1.74219C37.9896 1.58073 37.6953 1.5 37.3359 1.5C36.9661 1.5 36.6693 1.57292 36.4453 1.71875C36.2214 1.86458 36.0495 2.08333 35.9297 2.375C35.8099 2.66667 35.7292 3.02865 35.6875 3.46094C35.6458 3.89323 35.625 4.39583 35.625 4.96875H38.3594V6.01562H35.625V14H32.9766V6.01562H31.3359V4.96875H32.9766C32.9766 4.14062 33.0651 3.42969 33.2422 2.83594C33.4193 2.24219 33.6875 1.75521 34.0469 1.375C34.4062 0.989583 34.8568 0.708333 35.3984 0.53125C35.9453 0.348958 36.5833 0.257812 37.3125 0.257812C37.75 0.257812 38.1406 0.289062 38.4844 0.351562C38.8333 0.408854 39.1406 0.486979 39.4062 0.585938C39.6771 0.679688 39.9141 0.786458 40.1172 0.90625C40.3203 1.02604 40.5 1.14583 40.6562 1.26562ZM41.4453 9.71875C41.7682 9.79167 42.0911 9.84896 42.4141 9.89062C42.737 9.93229 43.0625 9.95312 43.3906 9.95312C43.7344 9.95312 44.0521 9.92188 44.3438 9.85938C44.6406 9.79167 44.8958 9.68229 45.1094 9.53125C45.3281 9.375 45.5 9.16927 45.625 8.91406C45.75 8.65885 45.8125 8.34115 45.8125 7.96094C45.8125 7.65365 45.7708 7.3724 45.6875 7.11719C45.6042 6.86198 45.4792 6.64323 45.3125 6.46094C45.151 6.27865 44.9505 6.13802 44.7109 6.03906C44.4714 5.9349 44.1927 5.88281 43.875 5.88281C43.5781 5.88281 43.3099 5.9375 43.0703 6.04688C42.8359 6.15625 42.6276 6.30469 42.4453 6.49219C42.2682 6.67448 42.1146 6.88802 41.9844 7.13281C41.8594 7.3776 41.7552 7.63281 41.6719 7.89844C41.5885 8.16406 41.5286 8.43229 41.4922 8.70312C41.4557 8.97396 41.4375 9.22917 41.4375 9.46875C41.4375 9.51042 41.4375 9.55208 41.4375 9.59375C41.4375 9.63542 41.4401 9.67708 41.4453 9.71875ZM47.9531 7.9375C47.9531 8.30729 47.8932 8.63802 47.7734 8.92969C47.6536 9.21615 47.4896 9.46875 47.2812 9.6875C47.0781 9.90625 46.8411 10.0911 46.5703 10.2422C46.2995 10.3932 46.0104 10.5182 45.7031 10.6172C45.3958 10.7109 45.0781 10.7786 44.75 10.8203C44.4271 10.862 44.112 10.8828 43.8047 10.8828C43.4141 10.8828 43.0286 10.8568 42.6484 10.8047C42.2682 10.7474 41.8932 10.6589 41.5234 10.5391C41.5807 10.8828 41.6719 11.2109 41.7969 11.5234C41.9219 11.8307 42.0885 12.1016 42.2969 12.3359C42.5052 12.5651 42.7604 12.7474 43.0625 12.8828C43.3698 13.0182 43.7318 13.0859 44.1484 13.0859C44.4245 13.0859 44.6875 13.0443 44.9375 12.9609C45.1875 12.8776 45.4167 12.7604 45.625 12.6094C45.8333 12.4583 46.0156 12.2786 46.1719 12.0703C46.3333 11.862 46.4635 11.6302 46.5625 11.375L47.7031 11.7969C47.5312 12.2083 47.2943 12.5651 46.9922 12.8672C46.6953 13.1641 46.3568 13.4115 45.9766 13.6094C45.6016 13.8021 45.2005 13.9453 44.7734 14.0391C44.3516 14.1328 43.9323 14.1797 43.5156 14.1797C42.8281 14.1797 42.1927 14.0651 41.6094 13.8359C41.026 13.6016 40.5234 13.276 40.1016 12.8594C39.6797 12.4427 39.349 11.9453 39.1094 11.3672C38.8698 10.7891 38.75 10.1562 38.75 9.46875C38.75 8.78125 38.8698 8.14844 39.1094 7.57031C39.349 6.99219 39.6797 6.49479 40.1016 6.07812C40.5234 5.66146 41.026 5.33854 41.6094 5.10938C42.1927 4.875 42.8281 4.75781 43.5156 4.75781C43.849 4.75781 44.1901 4.78125 44.5391 4.82812C44.888 4.875 45.2266 4.95052 45.5547 5.05469C45.8828 5.15365 46.1927 5.28385 46.4844 5.44531C46.776 5.60677 47.0286 5.80729 47.2422 6.04688C47.4609 6.28125 47.6328 6.55469 47.7578 6.86719C47.888 7.17969 47.9531 7.53646 47.9531 7.9375ZM52.375 2.79688C52.375 2.99479 52.3359 3.18229 52.2578 3.35938C52.1849 3.53646 52.0833 3.6901 51.9531 3.82031C51.8229 3.95052 51.6693 4.05469 51.4922 4.13281C51.3151 4.20573 51.1276 4.24219 50.9297 4.24219C50.7318 4.24219 50.5443 4.20573 50.3672 4.13281C50.1953 4.05469 50.0443 3.95052 49.9141 3.82031C49.7839 3.6901 49.6797 3.53646 49.6016 3.35938C49.5286 3.18229 49.4922 2.99479 49.4922 2.79688C49.4922 2.59896 49.5286 2.41406 49.6016 2.24219C49.6797 2.0651 49.7839 1.91146 49.9141 1.78125C50.0443 1.65104 50.1953 1.54948 50.3672 1.47656C50.5443 1.39844 50.7318 1.35938 50.9297 1.35938C51.1276 1.35938 51.3151 1.39844 51.4922 1.47656C51.6693 1.54948 51.8229 1.65104 51.9531 1.78125C52.0833 1.91146 52.1849 2.0651 52.2578 2.24219C52.3359 2.41406 52.375 2.59896 52.375 2.79688ZM52.2578 14H49.6094V4.98438H52.2578V14ZM63.7031 8.82812C63.7031 9.4375 63.6276 10.0729 63.4766 10.7344C63.3307 11.3958 63.125 12.0443 62.8594 12.6797C62.5938 13.3151 62.276 13.9115 61.9062 14.4688C61.5365 15.0312 61.1302 15.5156 60.6875 15.9219L59.6953 15.3828C59.8359 15.1224 59.9688 14.8307 60.0938 14.5078C60.2188 14.1849 60.3307 13.8438 60.4297 13.4844C60.5339 13.1198 60.625 12.7448 60.7031 12.3594C60.7865 11.974 60.8542 11.5938 60.9062 11.2188C60.9635 10.8385 61.0052 10.4714 61.0312 10.1172C61.0625 9.75781 61.0781 9.42448 61.0781 9.11719C61.0781 8.91406 61.0703 8.69792 61.0547 8.46875C61.0391 8.23438 61.0052 8.0026 60.9531 7.77344C60.9062 7.53906 60.8411 7.3151 60.7578 7.10156C60.6745 6.88802 60.5625 6.70052 60.4219 6.53906C60.2865 6.3776 60.1198 6.2474 59.9219 6.14844C59.7292 6.04948 59.5 6 59.2344 6C58.974 6 58.7422 6.0599 58.5391 6.17969C58.3359 6.29427 58.1562 6.44792 58 6.64062C57.8438 6.82812 57.7083 7.04427 57.5938 7.28906C57.4844 7.53385 57.3932 7.78646 57.3203 8.04688C57.2526 8.30208 57.2031 8.55469 57.1719 8.80469C57.1406 9.05469 57.125 9.27865 57.125 9.47656V14H54.4766V4.97656H55.4922L56.7031 7.07812C56.849 6.72917 57.0312 6.41146 57.25 6.125C57.4688 5.83854 57.7161 5.59375 57.9922 5.39062C58.2682 5.1875 58.5729 5.03125 58.9062 4.92188C59.2448 4.8125 59.6094 4.75781 60 4.75781C60.625 4.75781 61.1693 4.85938 61.6328 5.0625C62.0964 5.26562 62.4818 5.54948 62.7891 5.91406C63.0964 6.27344 63.3255 6.70312 63.4766 7.20312C63.6276 7.69792 63.7031 8.23958 63.7031 8.82812ZM67.6172 9.71875C67.9401 9.79167 68.263 9.84896 68.5859 9.89062C68.9089 9.93229 69.2344 9.95312 69.5625 9.95312C69.9062 9.95312 70.224 9.92188 70.5156 9.85938C70.8125 9.79167 71.0677 9.68229 71.2812 9.53125C71.5 9.375 71.6719 9.16927 71.7969 8.91406C71.9219 8.65885 71.9844 8.34115 71.9844 7.96094C71.9844 7.65365 71.9427 7.3724 71.8594 7.11719C71.776 6.86198 71.651 6.64323 71.4844 6.46094C71.3229 6.27865 71.1224 6.13802 70.8828 6.03906C70.6432 5.9349 70.3646 5.88281 70.0469 5.88281C69.75 5.88281 69.4818 5.9375 69.2422 6.04688C69.0078 6.15625 68.7995 6.30469 68.6172 6.49219C68.4401 6.67448 68.2865 6.88802 68.1562 7.13281C68.0312 7.3776 67.9271 7.63281 67.8438 7.89844C67.7604 8.16406 67.7005 8.43229 67.6641 8.70312C67.6276 8.97396 67.6094 9.22917 67.6094 9.46875C67.6094 9.51042 67.6094 9.55208 67.6094 9.59375C67.6094 9.63542 67.612 9.67708 67.6172 9.71875ZM74.125 7.9375C74.125 8.30729 74.0651 8.63802 73.9453 8.92969C73.8255 9.21615 73.6615 9.46875 73.4531 9.6875C73.25 9.90625 73.013 10.0911 72.7422 10.2422C72.4714 10.3932 72.1823 10.5182 71.875 10.6172C71.5677 10.7109 71.25 10.7786 70.9219 10.8203C70.599 10.862 70.2839 10.8828 69.9766 10.8828C69.5859 10.8828 69.2005 10.8568 68.8203 10.8047C68.4401 10.7474 68.0651 10.6589 67.6953 10.5391C67.7526 10.8828 67.8438 11.2109 67.9688 11.5234C68.0938 11.8307 68.2604 12.1016 68.4688 12.3359C68.6771 12.5651 68.9323 12.7474 69.2344 12.8828C69.5417 13.0182 69.9036 13.0859 70.3203 13.0859C70.5964 13.0859 70.8594 13.0443 71.1094 12.9609C71.3594 12.8776 71.5885 12.7604 71.7969 12.6094C72.0052 12.4583 72.1875 12.2786 72.3438 12.0703C72.5052 11.862 72.6354 11.6302 72.7344 11.375L73.875 11.7969C73.7031 12.2083 73.4661 12.5651 73.1641 12.8672C72.8672 13.1641 72.5286 13.4115 72.1484 13.6094C71.7734 13.8021 71.3724 13.9453 70.9453 14.0391C70.5234 14.1328 70.1042 14.1797 69.6875 14.1797C69 14.1797 68.3646 14.0651 67.7812 13.8359C67.1979 13.6016 66.6953 13.276 66.2734 12.8594C65.8516 12.4427 65.5208 11.9453 65.2812 11.3672C65.0417 10.7891 64.9219 10.1562 64.9219 9.46875C64.9219 8.78125 65.0417 8.14844 65.2812 7.57031C65.5208 6.99219 65.8516 6.49479 66.2734 6.07812C66.6953 5.66146 67.1979 5.33854 67.7812 5.10938C68.3646 4.875 69 4.75781 69.6875 4.75781C70.0208 4.75781 70.362 4.78125 70.7109 4.82812C71.0599 4.875 71.3984 4.95052 71.7266 5.05469C72.0547 5.15365 72.3646 5.28385 72.6562 5.44531C72.9479 5.60677 73.2005 5.80729 73.4141 6.04688C73.6328 6.28125 73.8047 6.55469 73.9297 6.86719C74.0599 7.17969 74.125 7.53646 74.125 7.9375ZM83.5781 14H80.4766V2.75H83.5781V7.66406H87.6875V2.75H90.7891V14H87.6875V9.09375H83.5781V14ZM102.078 14H99.4375V12.9219C99.125 13.349 98.7474 13.6667 98.3047 13.875C97.8672 14.0781 97.3854 14.1797 96.8594 14.1797C96.1719 14.1797 95.5573 14.0573 95.0156 13.8125C94.474 13.5677 94.0156 13.2344 93.6406 12.8125C93.2656 12.3854 92.9792 11.8854 92.7812 11.3125C92.5833 10.7396 92.4844 10.125 92.4844 9.46875C92.4844 8.8125 92.5833 8.19792 92.7812 7.625C92.9792 7.05208 93.2656 6.55469 93.6406 6.13281C94.0156 5.70573 94.474 5.36979 95.0156 5.125C95.5573 4.88021 96.1719 4.75781 96.8594 4.75781C97.2083 4.75781 97.5391 4.8099 97.8516 4.91406C98.1693 5.01823 98.4583 5.16667 98.7188 5.35938C98.9844 5.54688 99.2161 5.77604 99.4141 6.04688C99.6172 6.3125 99.776 6.60938 99.8906 6.9375L101.062 4.97656H102.078V14ZM99.4219 9.46875C99.4219 9.23438 99.4089 8.98698 99.3828 8.72656C99.362 8.46615 99.3229 8.20833 99.2656 7.95312C99.2083 7.69792 99.1276 7.45573 99.0234 7.22656C98.9245 6.99219 98.7943 6.78646 98.6328 6.60938C98.4766 6.42708 98.2865 6.28385 98.0625 6.17969C97.8385 6.07552 97.5781 6.02344 97.2812 6.02344C96.9844 6.02344 96.7266 6.07812 96.5078 6.1875C96.2891 6.29167 96.1016 6.4349 95.9453 6.61719C95.7891 6.79427 95.6589 7 95.5547 7.23438C95.4557 7.46875 95.3776 7.71354 95.3203 7.96875C95.263 8.22396 95.2214 8.48177 95.1953 8.74219C95.1745 8.9974 95.1641 9.23958 95.1641 9.46875C95.1641 9.69792 95.1745 9.94271 95.1953 10.2031C95.2214 10.4635 95.263 10.7214 95.3203 10.9766C95.3776 11.2318 95.4557 11.4766 95.5547 11.7109C95.6589 11.9453 95.7891 12.1536 95.9453 12.3359C96.1016 12.513 96.2891 12.6562 96.5078 12.7656C96.7266 12.8698 96.9844 12.9219 97.2812 12.9219C97.5521 12.9219 97.7917 12.8672 98 12.7578C98.2135 12.6432 98.3984 12.4922 98.5547 12.3047C98.7161 12.1172 98.8516 11.9036 98.9609 11.6641C99.0703 11.4245 99.1589 11.1771 99.2266 10.9219C99.2943 10.6667 99.3438 10.4141 99.375 10.1641C99.4062 9.90885 99.4219 9.67708 99.4219 9.46875ZM108.93 14H106.555L103.273 4.97656H105.914L108.32 12.1641L110.656 4.97656H112.484L108.93 14ZM115.586 9.71875C115.909 9.79167 116.232 9.84896 116.555 9.89062C116.878 9.93229 117.203 9.95312 117.531 9.95312C117.875 9.95312 118.193 9.92188 118.484 9.85938C118.781 9.79167 119.036 9.68229 119.25 9.53125C119.469 9.375 119.641 9.16927 119.766 8.91406C119.891 8.65885 119.953 8.34115 119.953 7.96094C119.953 7.65365 119.911 7.3724 119.828 7.11719C119.745 6.86198 119.62 6.64323 119.453 6.46094C119.292 6.27865 119.091 6.13802 118.852 6.03906C118.612 5.9349 118.333 5.88281 118.016 5.88281C117.719 5.88281 117.451 5.9375 117.211 6.04688C116.977 6.15625 116.768 6.30469 116.586 6.49219C116.409 6.67448 116.255 6.88802 116.125 7.13281C116 7.3776 115.896 7.63281 115.812 7.89844C115.729 8.16406 115.669 8.43229 115.633 8.70312C115.596 8.97396 115.578 9.22917 115.578 9.46875C115.578 9.51042 115.578 9.55208 115.578 9.59375C115.578 9.63542 115.581 9.67708 115.586 9.71875ZM122.094 7.9375C122.094 8.30729 122.034 8.63802 121.914 8.92969C121.794 9.21615 121.63 9.46875 121.422 9.6875C121.219 9.90625 120.982 10.0911 120.711 10.2422C120.44 10.3932 120.151 10.5182 119.844 10.6172C119.536 10.7109 119.219 10.7786 118.891 10.8203C118.568 10.862 118.253 10.8828 117.945 10.8828C117.555 10.8828 117.169 10.8568 116.789 10.8047C116.409 10.7474 116.034 10.6589 115.664 10.5391C115.721 10.8828 115.812 11.2109 115.938 11.5234C116.062 11.8307 116.229 12.1016 116.438 12.3359C116.646 12.5651 116.901 12.7474 117.203 12.8828C117.51 13.0182 117.872 13.0859 118.289 13.0859C118.565 13.0859 118.828 13.0443 119.078 12.9609C119.328 12.8776 119.557 12.7604 119.766 12.6094C119.974 12.4583 120.156 12.2786 120.312 12.0703C120.474 11.862 120.604 11.6302 120.703 11.375L121.844 11.7969C121.672 12.2083 121.435 12.5651 121.133 12.8672C120.836 13.1641 120.497 13.4115 120.117 13.6094C119.742 13.8021 119.341 13.9453 118.914 14.0391C118.492 14.1328 118.073 14.1797 117.656 14.1797C116.969 14.1797 116.333 14.0651 115.75 13.8359C115.167 13.6016 114.664 13.276 114.242 12.8594C113.82 12.4427 113.49 11.9453 113.25 11.3672C113.01 10.7891 112.891 10.1562 112.891 9.46875C112.891 8.78125 113.01 8.14844 113.25 7.57031C113.49 6.99219 113.82 6.49479 114.242 6.07812C114.664 5.66146 115.167 5.33854 115.75 5.10938C116.333 4.875 116.969 4.75781 117.656 4.75781C117.99 4.75781 118.331 4.78125 118.68 4.82812C119.029 4.875 119.367 4.95052 119.695 5.05469C120.023 5.15365 120.333 5.28385 120.625 5.44531C120.917 5.60677 121.169 5.80729 121.383 6.04688C121.602 6.28125 121.773 6.55469 121.898 6.86719C122.029 7.17969 122.094 7.53646 122.094 7.9375ZM132.969 8.82812C132.969 9.4375 132.893 10.0729 132.742 10.7344C132.596 11.3958 132.391 12.0443 132.125 12.6797C131.859 13.3151 131.542 13.9115 131.172 14.4688C130.802 15.0312 130.396 15.5156 129.953 15.9219L128.961 15.3828C129.102 15.1224 129.234 14.8307 129.359 14.5078C129.484 14.1849 129.596 13.8438 129.695 13.4844C129.799 13.1198 129.891 12.7448 129.969 12.3594C130.052 11.974 130.12 11.5938 130.172 11.2188C130.229 10.8385 130.271 10.4714 130.297 10.1172C130.328 9.75781 130.344 9.42448 130.344 9.11719C130.344 8.91406 130.336 8.69792 130.32 8.46875C130.305 8.23438 130.271 8.0026 130.219 7.77344C130.172 7.53906 130.107 7.3151 130.023 7.10156C129.94 6.88802 129.828 6.70052 129.688 6.53906C129.552 6.3776 129.385 6.2474 129.188 6.14844C128.995 6.04948 128.766 6 128.5 6C128.24 6 128.008 6.0599 127.805 6.17969C127.602 6.29427 127.422 6.44792 127.266 6.64062C127.109 6.82812 126.974 7.04427 126.859 7.28906C126.75 7.53385 126.659 7.78646 126.586 8.04688C126.518 8.30208 126.469 8.55469 126.438 8.80469C126.406 9.05469 126.391 9.27865 126.391 9.47656V14H123.742V4.97656H124.758L125.969 7.07812C126.115 6.72917 126.297 6.41146 126.516 6.125C126.734 5.83854 126.982 5.59375 127.258 5.39062C127.534 5.1875 127.839 5.03125 128.172 4.92188C128.51 4.8125 128.875 4.75781 129.266 4.75781C129.891 4.75781 130.435 4.85938 130.898 5.0625C131.362 5.26562 131.747 5.54948 132.055 5.91406C132.362 6.27344 132.591 6.70312 132.742 7.20312C132.893 7.69792 132.969 8.23958 132.969 8.82812Z" fill="white"/>
</svg>
